PathFileType	4	(X/Y/Z)	C:/Users/beibeiliu/ov580/test_trc\sequence.24_training_dense_left.trc
DataRate	CameraRate	NumFrames	NumMarkers	Units	OrigDataRate	OrigDataStartFrame	OrigNumFrames
120	120	20	19	mm	120	28	83
Frame#	Time	ThumbCMC			ThumbMCP			ThumbIP			ThumbTip			IndexMCP			IndexPIP			IndexTip			MiddleMCP			MiddlePIP			MiddleTip			RingMCP			RingPIP			RingTip			PinkyMCP			PinkyPIP			PinkyTip			BackHand1			BackHand2			BackHand3	
		X0	Y0	Z0	X1	Y1	Z1	X2	Y2	Z2	X3	Y3	Z3	X4	Y4	Z4	X5	Y5	Z5	X6	Y6	Z6	X7	Y7	Z7	X8	Y8	Z8	X9	Y9	Z9	X10	Y10	Z10	X11	Y11	Z11	X12	Y12	Z12	X13	Y13	Z13	X14	Y14	Z14	X15	Y15	Z15	X16	Y16	Z16	X17	Y17	Z17	X18	Y18	Z18	
27	0.225	-161.625	37.3523	20.8798	-155.553	64.7114	3.62207	-129.35	74.1496	-6.42039	-104.66	77.6724	1.47524	-112.242	50.7129	-19.55	-102.106	80.4664	-16.4618	-110.201	89.1273	8.89815	-96.1565	54.4145	-10.6365	-92.3734	78.0371	5.83721	-120.273	70.0519	25.177	-85.6098	46.5276	7.57871	-94.2142	71.0974	21.7249	-114.175	62.3298	34.5857	-80.5982	38.0121	24.2936	-87.656	60.5377	27.5467	-111.815	56.3877	38.2797	-118.673	9.72973	22.5527	-135.595	-1.07508	42.1733	-142.025	12.7581	14.0919	
28	0.233333	-163.06	29.8069	14.912	-155.91	48.7845	-2.44597	-135.914	57.3343	-17.6696	-112.677	62.4707	-17.745	-116.793	34.8063	-32.469	-106.229	59.7217	-34.4001	-116.286	77.5643	-8.05864	-102.789	35.3177	-23.1189	-97.897	66.4337	-16.4989	-114.059	63.5825	7.83505	-88.4351	37.7733	-8.00373	-95.8026	63.0605	-1.15513	-114.253	58.1226	16.4176	-83.0353	30.3716	9.00666	-87.5381	55.7739	11.8089	-110.369	54.1698	24.2487	-112.18	0.932638	19.7452	-133.623	-4.4343	43.5171	-143.61	1.56416	16.5317	
29	0.241667	-166.199	23.1512	17.3587	-157.244	38.3879	-7.52097	-148.518	48.2237	-28.6218	-122.886	54.4431	-37.1665	-127.294	8.0518	-35.2264	-119.316	33.5116	-47.823	-131.487	50.0656	-22.8082	-105.878	12.8659	-30.0837	-103.754	42.6422	-32.6621	-123.803	46.8672	-5.66774	-96.0797	18.0556	-16.884	-99.909	44.1018	-16.7374	-115.237	47.3925	5.10916	-89.277	16.5779	-0.0418133	-92.0979	41.5736	-5.69418	-113.831	43.512	8.14049	-121.989	-6.38828	23.2621	-133.951	-4.64971	44.9802	-149.069	-6.59966	21.2868	
30	0.25	-170.598	12.847	16.3593	-169.241	24.8672	-13.7516	-157.589	28.0487	-30.2476	-137.725	29.6825	-47.3768	-145.185	-14.8072	-37.3784	-134.547	5.48234	-49.1456	-144.16	26.1447	-23.636	-122.228	-11.4298	-27.6987	-117.466	16.8536	-40.6217	-131.164	29.1015	-15.5742	-108.244	-3.63703	-21.764	-111.098	24.1686	-25.6283	-130.006	29.4508	-6.44789	-98.0307	-0.165206	-5.51822	-100.548	19.6069	-16.5917	-123.939	30.8237	-1.29032	-125.377	-17.0855	27.2186	-138.278	-6.18357	51.1862	-155.744	-14.5132	28.6207	
31	0.258333	-186.947	8.7679	20.6888	-186.699	14.3748	-12.6949	-177.751	10.0928	-30.6125	-165.107	7.68273	-53.7465	-166.169	-33.4806	-27.4764	-162.569	-15.5047	-46.0075	-167.134	8.50292	-25.9204	-146.743	-30.9099	-27.3042	-143.551	-6.48803	-41.8711	-154.787	12.8843	-18.7843	-128.664	-22.4696	-16.7303	-132.201	-1.85712	-31.1743	-145.801	14.784	-10.9403	-115.921	-17.9694	-2.47757	-119.006	0.0692183	-22.4408	-135.936	13.8282	-12.4149	-143.021	-22.8488	32.9662	-152.466	-5.28029	53.963	-174.794	-17.2819	33.7817	
32	0.266667	-201.527	8.53937	23.3532	-202.3	9.30708	-6.9844	-199.503	2.3259	-29.7723	-186.996	-7.87733	-47.6395	-197.923	-40.8552	-13.2999	-188.4	-27.2045	-37.9201	-185.344	-1.76451	-21.9482	-173.359	-42.6443	-15.7353	-168.179	-23.7748	-38.9545	-173.778	0.810578	-17.9945	-157.777	-37.9834	-12.7058	-155.465	-18.1694	-30.125	-163.099	2.75974	-12.3409	-138.674	-33.3283	-1.97096	-145.88	-20.7354	-22.4712	-157.409	0.467378	-10.5039	-161.434	-28.3269	37.2422	-166.062	-5.84248	56.3617	-186.189	-15.7344	42.2712	
33	0.275	-214.582	16.1038	26.8291	-215.538	12.902	-5.58888	-214.415	0.873188	-28.9186	-206.943	-8.44444	-43.6222	-220.001	-37.6577	-7.65088	-211.505	-28.1914	-33.0366	-203.071	-2.34032	-19.1102	-203.21	-43.5723	-13.9667	-193.654	-27.8311	-35.1128	-189.589	-2.45335	-17.1697	-185.292	-43.3964	-11.5073	-179.672	-25.7038	-27.3794	-179.368	-2.46228	-9.004	-165.551	-45.2974	-3.48282	-169.899	-29.9788	-20.461	-171.462	-5.94278	-13.4316	-185.588	-30.3126	39.7484	-180.652	-12.0678	56.6934	-204.644	-14.6835	46.816	
34	0.283333	-217.799	25.2854	28.7317	-220.574	26.9903	-4.19616	-222.928	16.1533	-24.43	-220.057	0.961492	-42.9031	-243.75	-20.453	-6.50614	-230.58	-12.64	-33.0395	-215.642	5.79994	-22.9853	-228.741	-32.7584	-15.5409	-212.994	-17.7737	-35.5008	-203.106	4.11921	-13.3454	-209.108	-39.8886	-11.0734	-202.574	-18.9799	-29.5924	-192.964	0.0561358	-9.92521	-191.501	-44.1905	0.141888	-192.1	-29.8304	-23.5577	-190.022	-5.95791	-14.6643	-205.225	-26.2891	38.7401	-192.1	-9.37251	58.4462	-217.768	-6.7081	46.4915	
35	0.291667	-216.628	40.6128	28.2707	-221.322	40.6788	-5.34804	-225.011	34.1729	-24.3754	-225.423	20.9657	-44.7097	-259.12	7.00093	-11.561	-244.867	14.9665	-37.6123	-223.366	24.703	-26.4235	-245.474	-12.8531	-20.4026	-229.2	1.47828	-39.6679	-211.245	17.436	-19.3359	-231.233	-23.885	-16.4996	-217.017	-5.96747	-34.2807	-204.549	8.1147	-16.3685	-219.454	-35.1052	-9.79716	-212.68	-19.8143	-29.1472	-200.381	-1.87611	-21.8585	-223.961	-18.2476	33.368	-207.43	-7.5829	54.5749	-227.157	8.99417	43.3472	
36	0.3	-213.103	51.6291	26.6917	-215.108	53.9093	-5.82908	-219.573	51.6393	-26.1489	-223.968	44.089	-51.8119	-260.632	33.7666	-16.8092	-249.467	35.7648	-41.2185	-221.422	37.8959	-29.7204	-257.658	16.0071	-22.6755	-240.496	22.5142	-45.7575	-213.923	24.5102	-25.785	-247.834	-1.30289	-19.782	-232.194	7.97154	-39.225	-211.162	19.1243	-17.975	-240.629	-13.9482	-15.3415	-231.122	-3.88787	-33.1256	-209.302	8.62304	-25.4634	-236.364	-2.86239	29.2448	-222.905	2.33234	49.3034	-234.467	24.4861	39.124	
37	0.308333	-209.33	56.6911	22.5818	-207.521	62.4214	-9.33178	-209.711	62.2371	-28.8136	-215.34	58.2404	-54.1794	-256.713	61.0434	-25.3801	-240.983	58.8765	-46.3821	-215.956	53.0606	-31.9126	-259.995	40.5427	-26.4801	-241.63	39.9111	-50.3445	-217.487	33.6218	-30.7968	-257.951	21.5187	-25.8348	-235.75	28.0572	-44.2794	-214.527	23.8309	-23.366	-255.27	4.64156	-16.4283	-242.498	10.265	-39.091	-221.06	20.6893	-33.1796	-246.846	20.4869	25.4959	-235.077	12.2111	45.1503	-238.58	44.9524	34.2212	
38	0.316667	-206.651	58.791	19.4568	-196.129	64.2267	-12.3695	-200.36	66.0053	-35.4085	-207.875	59.1216	-54.6263	-245.204	80.6063	-26.706	-229.394	74.9246	-51.588	-212.072	55.5946	-37.4356	-254.545	66.3226	-32.6429	-238.381	54.5705	-56.0754	-217.787	40.3856	-33.0968	-259.68	46.9627	-33.2411	-240.001	40.6954	-50.5349	-220.389	32.1772	-32.2493	-262.764	28.6938	-25.7109	-248.702	25.7955	-44.6809	-221.929	24.0898	-32.7778	-254.572	35.964	18.0537	-242.922	32.2198	39.5036	-237.257	59.4928	30.3105	
39	0.325	-202.657	57.7897	13.1137	-193.642	55.1208	-15.6729	-195.484	57.3864	-43.6286	-206.574	52.2463	-66.5066	-229.787	87.8726	-41.5481	-219.636	76.4676	-60.7292	-205.5	52.9443	-42.6621	-247.004	75.106	-45.7804	-231.545	57.5333	-63.2446	-219.446	40.3121	-42.9915	-254.384	61.8161	-40.5148	-238.475	45.7487	-56.464	-223.969	31.2484	-35.2919	-264.315	45.3739	-35.2421	-248.169	35.9828	-49.6806	-228.753	27.5904	-33.3615	-253.914	57.748	11.4683	-247.835	45.8579	32.4314	-229.001	69.1324	23.1099	
40	0.333333	-189.536	55.8381	4.54753	-186.486	46.9774	-24.3859	-188.337	44.8106	-48.7209	-200.435	39.0964	-70.3806	-213.189	85.2258	-52.6135	-205.844	65.9309	-68.6997	-202.547	44.1913	-50.0063	-231.1	77.8147	-54.7685	-223.903	55.4869	-71.0053	-211.708	38.5075	-46.1666	-246.185	67.3873	-49.295	-234.089	46.9372	-62.9668	-221.972	33.4005	-37.9608	-256.395	58.5708	-38.5128	-247.071	40.0122	-53.1394	-227.726	29.9623	-37.4286	-247.578	72.0314	0.0149368	-240.51	63.2121	26.4466	-219.207	77.2593	13.6463	
41	0.341667	-176.563	53.2761	3.05843	-176.711	36.5059	-20.8575	-180.408	29.6369	-49.9794	-197.721	26.3057	-66.1246	-191.98	75.531	-56.9609	-192.897	54.0537	-73.3784	-194.46	34.5075	-50.5884	-214.233	71.7214	-61.9407	-211.866	44.7661	-72.5328	-209.373	30.3148	-42.9592	-232.023	66.905	-53.3247	-222.627	42.3657	-62.6764	-213.853	30.7345	-38.2463	-246.21	60.4086	-43.6272	-236.33	38.5114	-51.4307	-222.876	26.7762	-29.7256	-227.241	80.1845	-5.0558	-221.3	74.9885	20.6879	-197.948	80.0721	7.42076	
42	0.35	-163.457	50.1636	4.03732	-160.385	25.9651	-15.0965	-174.008	17.8615	-37.4796	-189.81	11.3088	-49.4825	-171.817	58.4209	-58.0428	-179.678	30.3281	-64.3825	-180.273	22.4454	-34.5752	-196.2	55.2862	-62.0103	-201.422	27.4869	-62.8115	-193.414	21.3701	-30.083	-214.35	56.1868	-51.2609	-214.524	27.3976	-50.437	-203.737	23.0202	-25.5201	-229.193	55.8556	-40.6067	-222.668	31.4364	-42.0938	-209.594	24.5767	-20.7721	-205.274	82.7409	-6.85765	-201.948	82.8831	18.5921	-178.296	80.247	3.144	
43	0.358333	-146.794	47.6813	14.8118	-149.891	21.3468	0.0429635	-159.837	6.65038	-15.004	-184.024	-0.639756	-28.943	-163.289	34.8166	-48.9386	-166.689	7.73017	-47.5519	-170.182	6.41238	-17.1246	-182.443	36.7702	-48.6961	-186.652	5.36705	-41.4733	-185.846	9.83551	-11.3848	-198.522	35.704	-42.4877	-200.858	12.9254	-32.6362	-194.667	15.7716	-2.9684	-210.798	41.8602	-32.9217	-210.447	20.0802	-24.2901	-198.27	18.0909	-3.23628	-186.212	77.1432	-11.4002	-186.622	87.4763	15.6876	-159.026	75.9661	3.17952	
44	0.366667	-140.958	53.2405	23.8974	-134.189	21.4451	9.45086	-151.784	7.03512	-9.49408	-174.635	7.16362	-13.6246	-150.397	16.8193	-30.669	-157.014	-8.69183	-21.7941	-159.087	-3.85751	10.2679	-168.509	17.5994	-32.1414	-175.899	-8.91679	-19.3335	-172.276	-0.348082	13.5022	-188.948	15.9922	-25.8253	-188.189	-1.51868	-8.65949	-181.988	12.4131	18.0605	-200.934	28.5102	-18.4793	-197.682	7.25779	-0.459111	-182.551	17.9907	18.3832	-179.689	67.3701	-8.13414	-175.147	82.5046	12.6694	-150.569	70.7896	0.509871	
45	0.375	-136.417	54.7042	28.292	-126.918	24.5955	18.8677	-140.543	8.73932	9.40156	-161.597	-0.155988	4.83464	-137.762	5.06548	-13.4583	-138.947	-15.7624	6.04028	-142.881	-3.235	32.105	-156.446	-0.588578	-13.9853	-160.773	-18.7122	10.2956	-159.15	-2.09859	34.8514	-172.11	1.75131	-8.90005	-171.009	-11.0562	13.7648	-168.72	12.2997	35.5202	-190.122	5.45239	-1.9238	-185.537	-3.02535	19.6172	-174.467	12.5571	35.1782	-181.589	54.2413	-5.16555	-177.911	77.0407	11.7572	-152.426	66.1645	4.64095	
46	0.383333	-136.284	61.5201	31.6013	-117.041	35.7401	32.3958	-126.409	13.4668	24.8253	-150.807	2.01997	23.2832	-121.265	7.88825	1.55296	-118.202	-10.5786	22.7596	-129.73	7.66947	45.8105	-135.092	-3.76144	4.31766	-133.698	-16.2913	33.9707	-143.671	4.40044	52.6605	-158.286	-7.97159	8.78312	-148.604	-12.1232	35.429	-157.784	10.4812	50.8669	-171.333	-7.77767	16.3088	-163.956	-8.41583	35.8881	-163.664	14.359	47.4711	-174.108	39.8079	-0.34071	-185.284	63.4734	13.7775	-154.514	61.7579	8.22362	
